<?xml version="1.0" encoding="utf-8"?><!-- Uploaded to: SVG Repo, www.svgrepo.com, Generator: SVG Repo Mixer Tools -->
<svg version="1.1" id="Uploaded to svgrepo.com" xmlns="http://www.w3.org/2000/svg" xmlns:xlink="http://www.w3.org/1999/xlink" 
	 width="800px" height="800px" viewBox="0 0 32 32" xml:space="preserve">
<style type="text/css">
	.stone_een{fill:#111918;}
	.st0{fill:#0B1719;}
</style>
<path class="stone_een" d="M8,14h16V4c0-1.105-0.895-2-2-2H10C8.895,2,8,2.895,8,4V14z M13.5,6h5C18.776,6,19,6.224,19,6.5
	C19,6.776,18.776,7,18.5,7h-5C13.224,7,13,6.776,13,6.5C13,6.224,13.224,6,13.5,6z M13.5,8h5C18.776,8,19,8.224,19,8.5
	C19,8.776,18.776,9,18.5,9h-5C13.224,9,13,8.776,13,8.5C13,8.224,13.224,8,13.5,8z M13.5,10h5c0.276,0,0.5,0.224,0.5,0.5
	c0,0.276-0.224,0.5-0.5,0.5h-5c-0.276,0-0.5-0.224-0.5-0.5C13,10.224,13.224,10,13.5,10z M26,10h-1v4h0.5c0.276,0,0.5,0.224,0.5,0.5
	S25.776,15,25.5,15h-19C6.224,15,6,14.776,6,14.5S6.224,14,6.5,14H7v-4H6c-1.657,0-3,1.343-3,3v13c0,1.657,1.343,3,3,3h20
	c1.657,0,3-1.343,3-3V13C29,11.343,27.657,10,26,10z M19,18c0.552,0,1,0.448,1,1c0,0.552-0.448,1-1,1s-1-0.448-1-1
	C18,18.448,18.448,18,19,18z M19,21c0.552,0,1,0.448,1,1c0,0.552-0.448,1-1,1s-1-0.448-1-1C18,21.448,18.448,21,19,21z M16,18
	c0.552,0,1,0.448,1,1c0,0.552-0.448,1-1,1s-1-0.448-1-1C15,18.448,15.448,18,16,18z M16,21c0.552,0,1,0.448,1,1c0,0.552-0.448,1-1,1
	s-1-0.448-1-1C15,21.448,15.448,21,16,21z M13,18c0.552,0,1,0.448,1,1c0,0.552-0.448,1-1,1s-1-0.448-1-1C12,18.448,12.448,18,13,18z
	 M13,21c0.552,0,1,0.448,1,1c0,0.552-0.448,1-1,1s-1-0.448-1-1C12,21.448,12.448,21,13,21z M10,18c0.552,0,1,0.448,1,1
	c0,0.552-0.448,1-1,1s-1-0.448-1-1C9,18.448,9.448,18,10,18z M10,21c0.552,0,1,0.448,1,1c0,0.552-0.448,1-1,1s-1-0.448-1-1
	C9,21.448,9.448,21,10,21z M7,26c-0.552,0-1-0.448-1-1c0-0.552,0.448-1,1-1s1,0.448,1,1C8,25.552,7.552,26,7,26z M7,23
	c-0.552,0-1-0.448-1-1c0-0.552,0.448-1,1-1s1,0.448,1,1C8,22.552,7.552,23,7,23z M7,20c-0.552,0-1-0.448-1-1c0-0.552,0.448-1,1-1
	s1,0.448,1,1C8,19.552,7.552,20,7,20z M22,26H10c-0.552,0-1-0.447-1-1s0.448-1,1-1h12c0.552,0,1,0.447,1,1S22.552,26,22,26z M22,23
	c-0.552,0-1-0.448-1-1c0-0.552,0.448-1,1-1s1,0.448,1,1C23,22.552,22.552,23,22,23z M22,20c-0.552,0-1-0.448-1-1
	c0-0.552,0.448-1,1-1s1,0.448,1,1C23,19.552,22.552,20,22,20z M25,26c-0.552,0-1-0.448-1-1c0-0.552,0.448-1,1-1s1,0.448,1,1
	C26,25.552,25.552,26,25,26z M25,23c-0.552,0-1-0.448-1-1c0-0.552,0.448-1,1-1s1,0.448,1,1C26,22.552,25.552,23,25,23z M25,20
	c-0.552,0-1-0.448-1-1c0-0.552,0.448-1,1-1s1,0.448,1,1C26,19.552,25.552,20,25,20z"/>
</svg>